<mxfile host="65bd71144e">
    <diagram id="brCuxjjli7gj-cHopB3Q" name="Page-2">
        <mxGraphModel dx="1072" dy="453" grid="1" gridSize="10" guides="1" tooltips="1" connect="1" arrows="1" fold="1" page="1" pageScale="1" pageWidth="850" pageHeight="1100" math="0" shadow="0">
            <root>
                <mxCell id="0"/>
                <mxCell id="1" parent="0"/>
                <mxCell id="Ouv-rb1WUEYUx1480wDl-1" value="&lt;font style=&quot;font-size: 20px;&quot;&gt;q0&lt;/font&gt;" style="ellipse;whiteSpace=wrap;html=1;" vertex="1" parent="1">
                    <mxGeometry x="80" y="240" width="50" height="50" as="geometry"/>
                </mxCell>
                <mxCell id="Ouv-rb1WUEYUx1480wDl-2" value="&lt;font style=&quot;font-size: 20px;&quot;&gt;q1&lt;/font&gt;" style="ellipse;whiteSpace=wrap;html=1;" vertex="1" parent="1">
                    <mxGeometry x="200" y="240" width="50" height="50" as="geometry"/>
                </mxCell>
                <mxCell id="Ouv-rb1WUEYUx1480wDl-3" value="&lt;font style=&quot;font-size: 20px;&quot;&gt;q2&lt;/font&gt;" style="ellipse;whiteSpace=wrap;html=1;" vertex="1" parent="1">
                    <mxGeometry x="320" y="240" width="50" height="50" as="geometry"/>
                </mxCell>
                <mxCell id="Ouv-rb1WUEYUx1480wDl-4" value="&lt;font style=&quot;font-size: 20px;&quot;&gt;q3&lt;/font&gt;" style="ellipse;whiteSpace=wrap;html=1;" vertex="1" parent="1">
                    <mxGeometry x="440" y="240" width="50" height="50" as="geometry"/>
                </mxCell>
                <mxCell id="Ouv-rb1WUEYUx1480wDl-5" value="&lt;font style=&quot;font-size: 20px;&quot;&gt;q4&lt;/font&gt;" style="ellipse;whiteSpace=wrap;html=1;" vertex="1" parent="1">
                    <mxGeometry x="560" y="240" width="50" height="50" as="geometry"/>
                </mxCell>
                <mxCell id="Ouv-rb1WUEYUx1480wDl-6" value="&lt;font style=&quot;font-size: 20px;&quot;&gt;q5&lt;/font&gt;" style="ellipse;whiteSpace=wrap;html=1;" vertex="1" parent="1">
                    <mxGeometry x="680" y="240" width="50" height="50" as="geometry"/>
                </mxCell>
                <mxCell id="Ouv-rb1WUEYUx1480wDl-7" value="" style="endArrow=classic;html=1;fontSize=20;entryX=0;entryY=0.5;entryDx=0;entryDy=0;" edge="1" parent="1" target="Ouv-rb1WUEYUx1480wDl-1">
                    <mxGeometry width="50" height="50" relative="1" as="geometry">
                        <mxPoint x="50" y="265" as="sourcePoint"/>
                        <mxPoint x="360" y="170" as="targetPoint"/>
                    </mxGeometry>
                </mxCell>
                <mxCell id="Ouv-rb1WUEYUx1480wDl-8" value="" style="endArrow=classic;html=1;fontSize=20;exitX=1;exitY=0.5;exitDx=0;exitDy=0;" edge="1" parent="1" source="Ouv-rb1WUEYUx1480wDl-1" target="Ouv-rb1WUEYUx1480wDl-2">
                    <mxGeometry width="50" height="50" relative="1" as="geometry">
                        <mxPoint x="200" y="280" as="sourcePoint"/>
                        <mxPoint x="250" y="230" as="targetPoint"/>
                    </mxGeometry>
                </mxCell>
                <mxCell id="Ouv-rb1WUEYUx1480wDl-9" value="" style="endArrow=classic;html=1;fontSize=20;exitX=1;exitY=0.5;exitDx=0;exitDy=0;entryX=0.5;entryY=0;entryDx=0;entryDy=0;edgeStyle=orthogonalEdgeStyle;curved=1;" edge="1" parent="1" source="Ouv-rb1WUEYUx1480wDl-1" target="Ouv-rb1WUEYUx1480wDl-1">
                    <mxGeometry width="50" height="50" relative="1" as="geometry">
                        <mxPoint x="200" y="280" as="sourcePoint"/>
                        <mxPoint x="250" y="230" as="targetPoint"/>
                        <Array as="points">
                            <mxPoint x="160" y="230"/>
                        </Array>
                    </mxGeometry>
                </mxCell>
                <mxCell id="Ouv-rb1WUEYUx1480wDl-10" value="" style="endArrow=classic;html=1;fontSize=20;exitX=1;exitY=0.5;exitDx=0;exitDy=0;entryX=0;entryY=0.5;entryDx=0;entryDy=0;" edge="1" parent="1" source="Ouv-rb1WUEYUx1480wDl-2" target="Ouv-rb1WUEYUx1480wDl-3">
                    <mxGeometry width="50" height="50" relative="1" as="geometry">
                        <mxPoint x="140.0000000000009" y="274.99999999999994" as="sourcePoint"/>
                        <mxPoint x="370" y="240" as="targetPoint"/>
                    </mxGeometry>
                </mxCell>
                <mxCell id="Ouv-rb1WUEYUx1480wDl-11" value="" style="endArrow=classic;html=1;fontSize=20;exitX=0.5;exitY=0;exitDx=0;exitDy=0;entryX=0.5;entryY=0;entryDx=0;entryDy=0;edgeStyle=orthogonalEdgeStyle;curved=1;" edge="1" parent="1" source="Ouv-rb1WUEYUx1480wDl-1" target="Ouv-rb1WUEYUx1480wDl-4">
                    <mxGeometry width="50" height="50" relative="1" as="geometry">
                        <mxPoint x="140.0000000000009" y="274.99999999999994" as="sourcePoint"/>
                        <mxPoint x="250" y="274.99999999999994" as="targetPoint"/>
                        <Array as="points">
                            <mxPoint x="105" y="190"/>
                            <mxPoint x="465" y="190"/>
                        </Array>
                    </mxGeometry>
                </mxCell>
                <mxCell id="Ouv-rb1WUEYUx1480wDl-12" value="" style="endArrow=classic;html=1;fontSize=20;exitX=0.5;exitY=0;exitDx=0;exitDy=0;entryX=0.5;entryY=0;entryDx=0;entryDy=0;edgeStyle=orthogonalEdgeStyle;curved=1;" edge="1" parent="1" source="Ouv-rb1WUEYUx1480wDl-2" target="Ouv-rb1WUEYUx1480wDl-4">
                    <mxGeometry width="50" height="50" relative="1" as="geometry">
                        <mxPoint x="140.0000000000009" y="274.99999999999994" as="sourcePoint"/>
                        <mxPoint x="250" y="274.99999999999994" as="targetPoint"/>
                        <Array as="points">
                            <mxPoint x="225" y="210"/>
                            <mxPoint x="465" y="210"/>
                        </Array>
                    </mxGeometry>
                </mxCell>
                <mxCell id="Ouv-rb1WUEYUx1480wDl-13" value="" style="endArrow=classic;html=1;fontSize=20;exitX=0.5;exitY=1;exitDx=0;exitDy=0;entryX=0.5;entryY=1;entryDx=0;entryDy=0;edgeStyle=orthogonalEdgeStyle;curved=1;" edge="1" parent="1" source="Ouv-rb1WUEYUx1480wDl-3" target="Ouv-rb1WUEYUx1480wDl-5">
                    <mxGeometry width="50" height="50" relative="1" as="geometry">
                        <mxPoint x="300" y="274.99999999999994" as="sourcePoint"/>
                        <mxPoint x="410" y="274.99999999999994" as="targetPoint"/>
                        <Array as="points">
                            <mxPoint x="425" y="310"/>
                            <mxPoint x="745" y="310"/>
                        </Array>
                    </mxGeometry>
                </mxCell>
                <mxCell id="Ouv-rb1WUEYUx1480wDl-14" value="" style="endArrow=classic;html=1;fontSize=20;entryX=0.5;entryY=1;entryDx=0;entryDy=0;exitX=0.5;exitY=1;exitDx=0;exitDy=0;edgeStyle=orthogonalEdgeStyle;curved=1;" edge="1" parent="1" source="Ouv-rb1WUEYUx1480wDl-3" target="Ouv-rb1WUEYUx1480wDl-6">
                    <mxGeometry width="50" height="50" relative="1" as="geometry">
                        <mxPoint x="420" y="330" as="sourcePoint"/>
                        <mxPoint x="755" y="300" as="targetPoint"/>
                        <Array as="points">
                            <mxPoint x="345" y="340"/>
                            <mxPoint x="705" y="340"/>
                        </Array>
                    </mxGeometry>
                </mxCell>
                <mxCell id="Ouv-rb1WUEYUx1480wDl-15" value="" style="endArrow=classic;html=1;fontSize=20;exitX=0.5;exitY=1;exitDx=0;exitDy=0;entryX=0.5;entryY=1;entryDx=0;entryDy=0;edgeStyle=orthogonalEdgeStyle;curved=1;" edge="1" parent="1" source="Ouv-rb1WUEYUx1480wDl-4" target="Ouv-rb1WUEYUx1480wDl-2">
                    <mxGeometry width="50" height="50" relative="1" as="geometry">
                        <mxPoint x="299.9999999999999" y="274.99999999999994" as="sourcePoint"/>
                        <mxPoint x="410" y="274.99999999999994" as="targetPoint"/>
                        <Array as="points">
                            <mxPoint x="465" y="320"/>
                            <mxPoint x="225" y="320"/>
                        </Array>
                    </mxGeometry>
                </mxCell>
                <mxCell id="Ouv-rb1WUEYUx1480wDl-16" value="" style="endArrow=classic;html=1;fontSize=20;exitX=0.5;exitY=0;exitDx=0;exitDy=0;entryX=0.5;entryY=0;entryDx=0;entryDy=0;edgeStyle=orthogonalEdgeStyle;curved=1;" edge="1" parent="1" source="Ouv-rb1WUEYUx1480wDl-5" target="Ouv-rb1WUEYUx1480wDl-3">
                    <mxGeometry width="50" height="50" relative="1" as="geometry">
                        <mxPoint x="279.9999999999999" y="274.99999999999994" as="sourcePoint"/>
                        <mxPoint x="390" y="274.99999999999994" as="targetPoint"/>
                        <Array as="points">
                            <mxPoint x="585" y="210"/>
                            <mxPoint x="345" y="210"/>
                        </Array>
                    </mxGeometry>
                </mxCell>
                <mxCell id="Ouv-rb1WUEYUx1480wDl-17" value="" style="endArrow=classic;html=1;fontSize=20;exitX=0;exitY=0.5;exitDx=0;exitDy=0;entryX=1;entryY=0.5;entryDx=0;entryDy=0;" edge="1" parent="1" source="Ouv-rb1WUEYUx1480wDl-5" target="Ouv-rb1WUEYUx1480wDl-4">
                    <mxGeometry width="50" height="50" relative="1" as="geometry">
                        <mxPoint x="299.9999999999999" y="274.99999999999994" as="sourcePoint"/>
                        <mxPoint x="410" y="274.99999999999994" as="targetPoint"/>
                    </mxGeometry>
                </mxCell>
                <mxCell id="Ouv-rb1WUEYUx1480wDl-18" value="" style="endArrow=classic;html=1;fontSize=20;entryX=1;entryY=0.5;entryDx=0;entryDy=0;" edge="1" parent="1" source="Ouv-rb1WUEYUx1480wDl-6" target="Ouv-rb1WUEYUx1480wDl-5">
                    <mxGeometry width="50" height="50" relative="1" as="geometry">
                        <mxPoint x="730" y="274.99999999999994" as="sourcePoint"/>
                        <mxPoint x="620.0000000000034" y="274.99999999999994" as="targetPoint"/>
                    </mxGeometry>
                </mxCell>
                <mxCell id="Ouv-rb1WUEYUx1480wDl-19" value="" style="endArrow=classic;html=1;fontSize=20;entryX=0.5;entryY=0;entryDx=0;entryDy=0;exitX=1;exitY=0.5;exitDx=0;exitDy=0;edgeStyle=orthogonalEdgeStyle;curved=1;" edge="1" parent="1" source="Ouv-rb1WUEYUx1480wDl-6" target="Ouv-rb1WUEYUx1480wDl-6">
                    <mxGeometry width="50" height="50" relative="1" as="geometry">
                        <mxPoint x="890" y="274.99999999999994" as="sourcePoint"/>
                        <mxPoint x="780" y="274.99999999999994" as="targetPoint"/>
                        <Array as="points">
                            <mxPoint x="770" y="230"/>
                        </Array>
                    </mxGeometry>
                </mxCell>
                <mxCell id="Ouv-rb1WUEYUx1480wDl-32" value="&lt;font style=&quot;font-size: 14px;&quot;&gt;1/1&lt;/font&gt;" style="text;html=1;align=center;verticalAlign=middle;resizable=0;points=[];autosize=1;strokeColor=none;fillColor=none;fontSize=20;" vertex="1" parent="1">
                    <mxGeometry x="144" y="234" width="40" height="40" as="geometry"/>
                </mxCell>
                <mxCell id="Ouv-rb1WUEYUx1480wDl-33" value="&lt;font style=&quot;font-size: 14px;&quot;&gt;0/0&lt;/font&gt;" style="text;html=1;align=center;verticalAlign=middle;resizable=0;points=[];autosize=1;strokeColor=none;fillColor=none;fontSize=20;" vertex="1" parent="1">
                    <mxGeometry x="125" y="210" width="40" height="40" as="geometry"/>
                </mxCell>
                <mxCell id="Ouv-rb1WUEYUx1480wDl-34" value="&lt;font style=&quot;font-size: 14px;&quot;&gt;0/2&lt;/font&gt;" style="text;html=1;align=center;verticalAlign=middle;resizable=0;points=[];autosize=1;strokeColor=none;fillColor=none;fontSize=20;" vertex="1" parent="1">
                    <mxGeometry x="263" y="234" width="40" height="40" as="geometry"/>
                </mxCell>
                <mxCell id="Ouv-rb1WUEYUx1480wDl-35" value="&lt;font style=&quot;font-size: 14px;&quot;&gt;0/0&lt;/font&gt;" style="text;html=1;align=center;verticalAlign=middle;resizable=0;points=[];autosize=1;strokeColor=none;fillColor=none;fontSize=20;" vertex="1" parent="1">
                    <mxGeometry x="245" y="160" width="40" height="40" as="geometry"/>
                </mxCell>
                <mxCell id="Ouv-rb1WUEYUx1480wDl-36" value="&lt;font style=&quot;font-size: 14px;&quot;&gt;1/1&lt;/font&gt;" style="text;html=1;align=center;verticalAlign=middle;resizable=0;points=[];autosize=1;strokeColor=none;fillColor=none;fontSize=20;" vertex="1" parent="1">
                    <mxGeometry x="305" y="305" width="40" height="40" as="geometry"/>
                </mxCell>
                <mxCell id="Ouv-rb1WUEYUx1480wDl-37" value="&lt;font style=&quot;font-size: 14px;&quot;&gt;1/3&lt;/font&gt;" style="text;html=1;align=center;verticalAlign=middle;resizable=0;points=[];autosize=1;strokeColor=none;fillColor=none;fontSize=20;" vertex="1" parent="1">
                    <mxGeometry x="289" y="180" width="40" height="40" as="geometry"/>
                </mxCell>
                <mxCell id="Ouv-rb1WUEYUx1480wDl-38" value="&lt;font style=&quot;font-size: 14px;&quot;&gt;1/5&lt;/font&gt;" style="text;html=1;align=center;verticalAlign=middle;resizable=0;points=[];autosize=1;strokeColor=none;fillColor=none;fontSize=20;" vertex="1" parent="1">
                    <mxGeometry x="505" y="325" width="40" height="40" as="geometry"/>
                </mxCell>
                <mxCell id="Ouv-rb1WUEYUx1480wDl-39" value="&lt;font style=&quot;font-size: 14px;&quot;&gt;0/4&lt;/font&gt;" style="text;html=1;align=center;verticalAlign=middle;resizable=0;points=[];autosize=1;strokeColor=none;fillColor=none;fontSize=20;" vertex="1" parent="1">
                    <mxGeometry x="455" y="295" width="40" height="40" as="geometry"/>
                </mxCell>
                <mxCell id="Ouv-rb1WUEYUx1480wDl-40" value="&lt;font style=&quot;font-size: 14px;&quot;&gt;0/2&lt;/font&gt;" style="text;html=1;align=center;verticalAlign=middle;resizable=0;points=[];autosize=1;strokeColor=none;fillColor=none;fontSize=20;" vertex="1" parent="1">
                    <mxGeometry x="467" y="178" width="40" height="40" as="geometry"/>
                </mxCell>
                <mxCell id="Ouv-rb1WUEYUx1480wDl-41" value="&lt;font style=&quot;font-size: 14px;&quot;&gt;1/3&lt;/font&gt;" style="text;html=1;align=center;verticalAlign=middle;resizable=0;points=[];autosize=1;strokeColor=none;fillColor=none;fontSize=20;" vertex="1" parent="1">
                    <mxGeometry x="505" y="233" width="40" height="40" as="geometry"/>
                </mxCell>
                <mxCell id="Ouv-rb1WUEYUx1480wDl-42" value="&lt;font style=&quot;font-size: 14px;&quot;&gt;0/4&lt;/font&gt;" style="text;html=1;align=center;verticalAlign=middle;resizable=0;points=[];autosize=1;strokeColor=none;fillColor=none;fontSize=20;" vertex="1" parent="1">
                    <mxGeometry x="625" y="234" width="40" height="40" as="geometry"/>
                </mxCell>
                <mxCell id="Ouv-rb1WUEYUx1480wDl-43" value="&lt;font style=&quot;font-size: 14px;&quot;&gt;1/5&lt;/font&gt;" style="text;html=1;align=center;verticalAlign=middle;resizable=0;points=[];autosize=1;strokeColor=none;fillColor=none;fontSize=20;" vertex="1" parent="1">
                    <mxGeometry x="730" y="210" width="40" height="40" as="geometry"/>
                </mxCell>
            </root>
        </mxGraphModel>
    </diagram>
    <diagram id="dvv3HA-7V6nnUclni0Wx" name="Page-1">
        <mxGraphModel dx="1072" dy="453" grid="1" gridSize="10" guides="1" tooltips="1" connect="1" arrows="1" fold="1" page="1" pageScale="1" pageWidth="850" pageHeight="1100" math="0" shadow="0">
            <root>
                <mxCell id="0"/>
                <mxCell id="1" parent="0"/>
                <mxCell id="2" value="&lt;font style=&quot;font-size: 20px;&quot;&gt;q0&lt;/font&gt;" style="ellipse;whiteSpace=wrap;html=1;" parent="1" vertex="1">
                    <mxGeometry x="80" y="240" width="50" height="50" as="geometry"/>
                </mxCell>
                <mxCell id="3" value="&lt;font style=&quot;font-size: 20px;&quot;&gt;q1&lt;/font&gt;" style="ellipse;whiteSpace=wrap;html=1;" parent="1" vertex="1">
                    <mxGeometry x="200" y="240" width="50" height="50" as="geometry"/>
                </mxCell>
                <mxCell id="4" value="&lt;font style=&quot;font-size: 20px;&quot;&gt;q2&lt;/font&gt;" style="ellipse;whiteSpace=wrap;html=1;" parent="1" vertex="1">
                    <mxGeometry x="320" y="240" width="50" height="50" as="geometry"/>
                </mxCell>
                <mxCell id="5" value="&lt;font style=&quot;font-size: 20px;&quot;&gt;q3&lt;/font&gt;" style="ellipse;whiteSpace=wrap;html=1;" parent="1" vertex="1">
                    <mxGeometry x="440" y="240" width="50" height="50" as="geometry"/>
                </mxCell>
                <mxCell id="6" value="&lt;font style=&quot;font-size: 20px;&quot;&gt;q4&lt;/font&gt;" style="ellipse;whiteSpace=wrap;html=1;" parent="1" vertex="1">
                    <mxGeometry x="560" y="240" width="50" height="50" as="geometry"/>
                </mxCell>
                <mxCell id="7" value="&lt;font style=&quot;font-size: 20px;&quot;&gt;q5&lt;/font&gt;" style="ellipse;whiteSpace=wrap;html=1;" parent="1" vertex="1">
                    <mxGeometry x="680" y="240" width="50" height="50" as="geometry"/>
                </mxCell>
                <mxCell id="8" value="" style="endArrow=classic;html=1;fontSize=20;entryX=0;entryY=0.5;entryDx=0;entryDy=0;" parent="1" target="2" edge="1">
                    <mxGeometry width="50" height="50" relative="1" as="geometry">
                        <mxPoint x="50" y="265" as="sourcePoint"/>
                        <mxPoint x="360" y="170" as="targetPoint"/>
                    </mxGeometry>
                </mxCell>
                <mxCell id="9" value="" style="endArrow=classic;html=1;fontSize=20;exitX=1;exitY=0.5;exitDx=0;exitDy=0;" parent="1" source="2" target="3" edge="1">
                    <mxGeometry width="50" height="50" relative="1" as="geometry">
                        <mxPoint x="200" y="280" as="sourcePoint"/>
                        <mxPoint x="250" y="230" as="targetPoint"/>
                    </mxGeometry>
                </mxCell>
                <mxCell id="10" value="" style="endArrow=classic;html=1;fontSize=20;exitX=1;exitY=0.5;exitDx=0;exitDy=0;entryX=0.5;entryY=0;entryDx=0;entryDy=0;edgeStyle=orthogonalEdgeStyle;curved=1;" parent="1" source="2" target="2" edge="1">
                    <mxGeometry width="50" height="50" relative="1" as="geometry">
                        <mxPoint x="200" y="280" as="sourcePoint"/>
                        <mxPoint x="250" y="230" as="targetPoint"/>
                        <Array as="points">
                            <mxPoint x="160" y="230"/>
                        </Array>
                    </mxGeometry>
                </mxCell>
                <mxCell id="11" value="" style="endArrow=classic;html=1;fontSize=20;exitX=1;exitY=0.5;exitDx=0;exitDy=0;entryX=0;entryY=0.5;entryDx=0;entryDy=0;" parent="1" source="3" target="4" edge="1">
                    <mxGeometry width="50" height="50" relative="1" as="geometry">
                        <mxPoint x="140.0000000000009" y="274.99999999999994" as="sourcePoint"/>
                        <mxPoint x="370" y="240" as="targetPoint"/>
                    </mxGeometry>
                </mxCell>
                <mxCell id="12" value="" style="endArrow=classic;html=1;fontSize=20;exitX=0.5;exitY=0;exitDx=0;exitDy=0;entryX=0.5;entryY=0;entryDx=0;entryDy=0;edgeStyle=orthogonalEdgeStyle;curved=1;" parent="1" source="2" target="5" edge="1">
                    <mxGeometry width="50" height="50" relative="1" as="geometry">
                        <mxPoint x="140.0000000000009" y="274.99999999999994" as="sourcePoint"/>
                        <mxPoint x="250" y="274.99999999999994" as="targetPoint"/>
                        <Array as="points">
                            <mxPoint x="105" y="190"/>
                            <mxPoint x="465" y="190"/>
                        </Array>
                    </mxGeometry>
                </mxCell>
                <mxCell id="13" value="" style="endArrow=classic;html=1;fontSize=20;exitX=0.5;exitY=0;exitDx=0;exitDy=0;entryX=0.5;entryY=0;entryDx=0;entryDy=0;edgeStyle=orthogonalEdgeStyle;curved=1;" parent="1" source="3" target="5" edge="1">
                    <mxGeometry width="50" height="50" relative="1" as="geometry">
                        <mxPoint x="140.0000000000009" y="274.99999999999994" as="sourcePoint"/>
                        <mxPoint x="250" y="274.99999999999994" as="targetPoint"/>
                        <Array as="points">
                            <mxPoint x="225" y="210"/>
                            <mxPoint x="465" y="210"/>
                        </Array>
                    </mxGeometry>
                </mxCell>
                <mxCell id="14" value="" style="endArrow=classic;html=1;fontSize=20;exitX=0.5;exitY=1;exitDx=0;exitDy=0;entryX=0.5;entryY=1;entryDx=0;entryDy=0;edgeStyle=orthogonalEdgeStyle;curved=1;" parent="1" source="4" target="6" edge="1">
                    <mxGeometry width="50" height="50" relative="1" as="geometry">
                        <mxPoint x="300" y="274.99999999999994" as="sourcePoint"/>
                        <mxPoint x="410" y="274.99999999999994" as="targetPoint"/>
                        <Array as="points">
                            <mxPoint x="425" y="310"/>
                            <mxPoint x="745" y="310"/>
                        </Array>
                    </mxGeometry>
                </mxCell>
                <mxCell id="15" value="" style="endArrow=classic;html=1;fontSize=20;entryX=0.5;entryY=1;entryDx=0;entryDy=0;exitX=0.5;exitY=1;exitDx=0;exitDy=0;edgeStyle=orthogonalEdgeStyle;curved=1;" parent="1" source="4" target="7" edge="1">
                    <mxGeometry width="50" height="50" relative="1" as="geometry">
                        <mxPoint x="420" y="330" as="sourcePoint"/>
                        <mxPoint x="755" y="300" as="targetPoint"/>
                        <Array as="points">
                            <mxPoint x="345" y="340"/>
                            <mxPoint x="705" y="340"/>
                        </Array>
                    </mxGeometry>
                </mxCell>
                <mxCell id="16" value="" style="endArrow=classic;html=1;fontSize=20;exitX=0.5;exitY=1;exitDx=0;exitDy=0;entryX=0.5;entryY=1;entryDx=0;entryDy=0;edgeStyle=orthogonalEdgeStyle;curved=1;" parent="1" source="5" target="3" edge="1">
                    <mxGeometry width="50" height="50" relative="1" as="geometry">
                        <mxPoint x="299.9999999999999" y="274.99999999999994" as="sourcePoint"/>
                        <mxPoint x="410" y="274.99999999999994" as="targetPoint"/>
                        <Array as="points">
                            <mxPoint x="465" y="320"/>
                            <mxPoint x="225" y="320"/>
                        </Array>
                    </mxGeometry>
                </mxCell>
                <mxCell id="17" value="" style="endArrow=classic;html=1;fontSize=20;exitX=0.5;exitY=0;exitDx=0;exitDy=0;entryX=0.5;entryY=0;entryDx=0;entryDy=0;edgeStyle=orthogonalEdgeStyle;curved=1;" parent="1" source="6" target="4" edge="1">
                    <mxGeometry width="50" height="50" relative="1" as="geometry">
                        <mxPoint x="279.9999999999999" y="274.99999999999994" as="sourcePoint"/>
                        <mxPoint x="390" y="274.99999999999994" as="targetPoint"/>
                        <Array as="points">
                            <mxPoint x="585" y="210"/>
                            <mxPoint x="345" y="210"/>
                        </Array>
                    </mxGeometry>
                </mxCell>
                <mxCell id="18" value="" style="endArrow=classic;html=1;fontSize=20;exitX=0;exitY=0.5;exitDx=0;exitDy=0;entryX=1;entryY=0.5;entryDx=0;entryDy=0;" parent="1" source="6" target="5" edge="1">
                    <mxGeometry width="50" height="50" relative="1" as="geometry">
                        <mxPoint x="299.9999999999999" y="274.99999999999994" as="sourcePoint"/>
                        <mxPoint x="410" y="274.99999999999994" as="targetPoint"/>
                    </mxGeometry>
                </mxCell>
                <mxCell id="19" value="" style="endArrow=classic;html=1;fontSize=20;entryX=1;entryY=0.5;entryDx=0;entryDy=0;" parent="1" source="7" target="6" edge="1">
                    <mxGeometry width="50" height="50" relative="1" as="geometry">
                        <mxPoint x="730" y="274.99999999999994" as="sourcePoint"/>
                        <mxPoint x="620.0000000000034" y="274.99999999999994" as="targetPoint"/>
                    </mxGeometry>
                </mxCell>
                <mxCell id="20" value="" style="endArrow=classic;html=1;fontSize=20;entryX=0.5;entryY=0;entryDx=0;entryDy=0;exitX=1;exitY=0.5;exitDx=0;exitDy=0;edgeStyle=orthogonalEdgeStyle;curved=1;" parent="1" source="7" target="7" edge="1">
                    <mxGeometry width="50" height="50" relative="1" as="geometry">
                        <mxPoint x="890" y="274.99999999999994" as="sourcePoint"/>
                        <mxPoint x="780" y="274.99999999999994" as="targetPoint"/>
                        <Array as="points">
                            <mxPoint x="770" y="230"/>
                        </Array>
                    </mxGeometry>
                </mxCell>
                <mxCell id="21" value="" style="endArrow=classic;html=1;fontSize=20;" parent="1" edge="1">
                    <mxGeometry width="50" height="50" relative="1" as="geometry">
                        <mxPoint x="105" y="390" as="sourcePoint"/>
                        <mxPoint x="104.84" y="360" as="targetPoint"/>
                    </mxGeometry>
                </mxCell>
                <mxCell id="22" value="" style="endArrow=classic;html=1;fontSize=20;" parent="1" edge="1">
                    <mxGeometry width="50" height="50" relative="1" as="geometry">
                        <mxPoint x="225" y="390" as="sourcePoint"/>
                        <mxPoint x="224.84000000000003" y="360" as="targetPoint"/>
                    </mxGeometry>
                </mxCell>
                <mxCell id="23" value="" style="endArrow=classic;html=1;fontSize=20;" parent="1" edge="1">
                    <mxGeometry width="50" height="50" relative="1" as="geometry">
                        <mxPoint x="345" y="390" as="sourcePoint"/>
                        <mxPoint x="344.84000000000003" y="360" as="targetPoint"/>
                    </mxGeometry>
                </mxCell>
                <mxCell id="24" value="" style="endArrow=classic;html=1;fontSize=20;" parent="1" edge="1">
                    <mxGeometry width="50" height="50" relative="1" as="geometry">
                        <mxPoint x="465" y="390" as="sourcePoint"/>
                        <mxPoint x="464.84000000000003" y="360" as="targetPoint"/>
                    </mxGeometry>
                </mxCell>
                <mxCell id="25" value="" style="endArrow=classic;html=1;fontSize=20;" parent="1" edge="1">
                    <mxGeometry width="50" height="50" relative="1" as="geometry">
                        <mxPoint x="585" y="390" as="sourcePoint"/>
                        <mxPoint x="584.84" y="360" as="targetPoint"/>
                    </mxGeometry>
                </mxCell>
                <mxCell id="26" value="" style="endArrow=classic;html=1;fontSize=20;" parent="1" edge="1">
                    <mxGeometry width="50" height="50" relative="1" as="geometry">
                        <mxPoint x="705" y="390" as="sourcePoint"/>
                        <mxPoint x="704.84" y="360" as="targetPoint"/>
                    </mxGeometry>
                </mxCell>
                <mxCell id="27" value="0" style="text;html=1;align=center;verticalAlign=middle;resizable=0;points=[];autosize=1;strokeColor=none;fillColor=none;fontSize=20;" parent="1" vertex="1">
                    <mxGeometry x="90" y="390" width="30" height="40" as="geometry"/>
                </mxCell>
                <mxCell id="28" value="1" style="text;html=1;align=center;verticalAlign=middle;resizable=0;points=[];autosize=1;strokeColor=none;fillColor=none;fontSize=20;" parent="1" vertex="1">
                    <mxGeometry x="210" y="390" width="30" height="40" as="geometry"/>
                </mxCell>
                <mxCell id="29" value="2" style="text;html=1;align=center;verticalAlign=middle;resizable=0;points=[];autosize=1;strokeColor=none;fillColor=none;fontSize=20;" parent="1" vertex="1">
                    <mxGeometry x="330" y="390" width="30" height="40" as="geometry"/>
                </mxCell>
                <mxCell id="30" value="3" style="text;html=1;align=center;verticalAlign=middle;resizable=0;points=[];autosize=1;strokeColor=none;fillColor=none;fontSize=20;" parent="1" vertex="1">
                    <mxGeometry x="450" y="390" width="30" height="40" as="geometry"/>
                </mxCell>
                <mxCell id="31" value="4" style="text;html=1;align=center;verticalAlign=middle;resizable=0;points=[];autosize=1;strokeColor=none;fillColor=none;fontSize=20;" parent="1" vertex="1">
                    <mxGeometry x="570" y="390" width="30" height="40" as="geometry"/>
                </mxCell>
                <mxCell id="32" value="5" style="text;html=1;align=center;verticalAlign=middle;resizable=0;points=[];autosize=1;strokeColor=none;fillColor=none;fontSize=20;" parent="1" vertex="1">
                    <mxGeometry x="690" y="390" width="30" height="40" as="geometry"/>
                </mxCell>
                <mxCell id="33" value="&lt;font style=&quot;font-size: 14px;&quot;&gt;1&lt;/font&gt;" style="text;html=1;align=center;verticalAlign=middle;resizable=0;points=[];autosize=1;strokeColor=none;fillColor=none;fontSize=20;" parent="1" vertex="1">
                    <mxGeometry x="149" y="234" width="30" height="40" as="geometry"/>
                </mxCell>
                <mxCell id="34" value="&lt;font style=&quot;font-size: 14px;&quot;&gt;0&lt;/font&gt;" style="text;html=1;align=center;verticalAlign=middle;resizable=0;points=[];autosize=1;strokeColor=none;fillColor=none;fontSize=20;" parent="1" vertex="1">
                    <mxGeometry x="130" y="210" width="30" height="40" as="geometry"/>
                </mxCell>
                <mxCell id="35" value="&lt;font style=&quot;font-size: 14px;&quot;&gt;0&lt;/font&gt;" style="text;html=1;align=center;verticalAlign=middle;resizable=0;points=[];autosize=1;strokeColor=none;fillColor=none;fontSize=20;" parent="1" vertex="1">
                    <mxGeometry x="268" y="234" width="30" height="40" as="geometry"/>
                </mxCell>
                <mxCell id="36" value="&lt;font style=&quot;font-size: 14px;&quot;&gt;0&lt;/font&gt;" style="text;html=1;align=center;verticalAlign=middle;resizable=0;points=[];autosize=1;strokeColor=none;fillColor=none;fontSize=20;" parent="1" vertex="1">
                    <mxGeometry x="250" y="160" width="30" height="40" as="geometry"/>
                </mxCell>
                <mxCell id="39" value="&lt;font style=&quot;font-size: 14px;&quot;&gt;1&lt;/font&gt;" style="text;html=1;align=center;verticalAlign=middle;resizable=0;points=[];autosize=1;strokeColor=none;fillColor=none;fontSize=20;" parent="1" vertex="1">
                    <mxGeometry x="310" y="305" width="30" height="40" as="geometry"/>
                </mxCell>
                <mxCell id="40" value="&lt;font style=&quot;font-size: 14px;&quot;&gt;1&lt;/font&gt;" style="text;html=1;align=center;verticalAlign=middle;resizable=0;points=[];autosize=1;strokeColor=none;fillColor=none;fontSize=20;" parent="1" vertex="1">
                    <mxGeometry x="294" y="180" width="30" height="40" as="geometry"/>
                </mxCell>
                <mxCell id="41" value="&lt;font style=&quot;font-size: 14px;&quot;&gt;1&lt;/font&gt;" style="text;html=1;align=center;verticalAlign=middle;resizable=0;points=[];autosize=1;strokeColor=none;fillColor=none;fontSize=20;" parent="1" vertex="1">
                    <mxGeometry x="510" y="325" width="30" height="40" as="geometry"/>
                </mxCell>
                <mxCell id="42" value="&lt;font style=&quot;font-size: 14px;&quot;&gt;0&lt;/font&gt;" style="text;html=1;align=center;verticalAlign=middle;resizable=0;points=[];autosize=1;strokeColor=none;fillColor=none;fontSize=20;" parent="1" vertex="1">
                    <mxGeometry x="460" y="295" width="30" height="40" as="geometry"/>
                </mxCell>
                <mxCell id="43" value="&lt;font style=&quot;font-size: 14px;&quot;&gt;0&lt;/font&gt;" style="text;html=1;align=center;verticalAlign=middle;resizable=0;points=[];autosize=1;strokeColor=none;fillColor=none;fontSize=20;" parent="1" vertex="1">
                    <mxGeometry x="472" y="178" width="30" height="40" as="geometry"/>
                </mxCell>
                <mxCell id="44" value="&lt;font style=&quot;font-size: 14px;&quot;&gt;1&lt;/font&gt;" style="text;html=1;align=center;verticalAlign=middle;resizable=0;points=[];autosize=1;strokeColor=none;fillColor=none;fontSize=20;" parent="1" vertex="1">
                    <mxGeometry x="510" y="233" width="30" height="40" as="geometry"/>
                </mxCell>
                <mxCell id="45" value="&lt;font style=&quot;font-size: 14px;&quot;&gt;0&lt;/font&gt;" style="text;html=1;align=center;verticalAlign=middle;resizable=0;points=[];autosize=1;strokeColor=none;fillColor=none;fontSize=20;" parent="1" vertex="1">
                    <mxGeometry x="630" y="234" width="30" height="40" as="geometry"/>
                </mxCell>
                <mxCell id="46" value="&lt;font style=&quot;font-size: 14px;&quot;&gt;1&lt;/font&gt;" style="text;html=1;align=center;verticalAlign=middle;resizable=0;points=[];autosize=1;strokeColor=none;fillColor=none;fontSize=20;" parent="1" vertex="1">
                    <mxGeometry x="735" y="210" width="30" height="40" as="geometry"/>
                </mxCell>
            </root>
        </mxGraphModel>
    </diagram>
</mxfile>